<svg width="163" height="33" viewBox="0 0 163 33" fill="none" xmlns="http://www.w3.org/2000/svg">
<path d="M13.6677 29.1179L20.6532 11.7151L27.5283 29.1175H31.4884L41.0589 4.49243H35.8063L29.6735 21.6678L23.0179 4.49282H19.0307L12.3206 21.6678L6.07743 4.49282H0L9.68051 29.1179H13.6681H13.6677ZM73.5657 29.1179V24.5112H53.5723V18.4546H65.0402V14.2176H53.5723V8.84332H73.2632V4.49282H47.7141V29.1179H73.5657ZM87.7286 29.1179V4.49282H81.9536V29.1179H87.7286ZM119.465 29.1179C121.867 29.1179 123.499 28.7101 124.36 27.8949C125.222 27.0798 125.653 25.5445 125.653 23.2887V19.9046C125.653 17.6488 125.231 16.1183 124.388 15.3121C123.545 14.5068 121.904 14.1041 119.465 14.1041H103.955V8.90029H120.345V11.5446L125.378 10.436V9.83882C125.378 7.84822 124.934 6.45947 124.044 5.67297C123.155 4.88607 121.51 4.49282 119.108 4.49282H104.972C102.534 4.49282 100.884 4.90532 100.022 5.72993C99.1603 6.55454 98.7292 8.07568 98.7292 10.2938V13.0516C98.7292 15.2889 99.1603 16.8195 100.022 17.6441C100.884 18.4691 102.534 18.8812 104.972 18.8812H120.4V24.5112H102.882V21.6108L97.7123 22.6063V23.2887C97.7123 25.5445 98.1476 27.0798 99.0182 27.8949C99.8892 28.7101 101.553 29.1179 104.01 29.1179H119.466H119.465ZM156.812 29.1179C159.214 29.1179 160.846 28.7101 161.707 27.8949C162.569 27.0798 163 25.5445 163 23.2887V19.9046C163 17.6488 162.578 16.1183 161.735 15.3121C160.891 14.5068 159.251 14.1041 156.812 14.1041H141.302V8.90029H157.692V11.5446L162.725 10.436V9.83882C162.725 7.84822 162.28 6.45947 161.391 5.67297C160.502 4.88607 158.857 4.49282 156.455 4.49282H142.319C139.88 4.49282 138.231 4.90532 137.369 5.72993C136.507 6.55454 136.076 8.07568 136.076 10.2938V13.0516C136.076 15.2889 136.507 16.8195 137.369 17.6441C138.231 18.4691 139.88 18.8812 142.319 18.8812H157.747V24.5112H140.229V21.6108L135.059 22.6063V23.2887C135.059 25.5445 135.494 27.0798 136.365 27.8949C137.235 28.7101 138.9 29.1179 141.356 29.1179H156.812Z" fill="#DCDCDC"/>
<path fill-rule="evenodd" clip-rule="evenodd" d="M105.916 0.99V6.77482C105.916 7.03739 106.018 7.2892 106.198 7.47486C106.379 7.66052 106.623 7.76482 106.879 7.76482H108.709C108.964 7.76482 109.209 7.66052 109.389 7.47486C109.57 7.2892 109.671 7.03739 109.671 6.77482V0.99C109.671 0.727436 109.57 0.475625 109.389 0.289964C109.209 0.104303 108.964 0 108.709 0L106.879 0C106.623 0 106.379 0.104303 106.198 0.289964C106.018 0.475625 105.916 0.727436 105.916 0.99ZM143.465 0.99V6.77482C143.465 7.03739 143.566 7.2892 143.747 7.47486C143.927 7.66052 144.172 7.76482 144.427 7.76482H146.257C146.513 7.76482 146.757 7.66052 146.938 7.47486C147.118 7.2892 147.22 7.03739 147.22 6.77482V0.99C147.22 0.727436 147.118 0.475625 146.938 0.289964C146.757 0.104303 146.513 0 146.257 0L144.427 0C144.172 0 143.927 0.104303 143.747 0.289964C143.566 0.475625 143.465 0.727436 143.465 0.99ZM113.426 25.7302V32.01C113.426 32.2726 113.527 32.5244 113.708 32.71C113.888 32.8957 114.133 33 114.388 33H116.219C116.474 33 116.719 32.8957 116.899 32.71C117.08 32.5244 117.181 32.2726 117.181 32.01V26.2252C117.181 25.9626 117.08 25.7108 116.899 25.5251C116.719 25.3395 116.474 25.2352 116.219 25.2352H113.907C113.78 25.2352 113.657 25.2873 113.567 25.3802C113.477 25.473 113.426 25.5989 113.426 25.7302ZM150.975 25.7302V32.01C150.975 32.2726 151.076 32.5244 151.256 32.71C151.437 32.8957 151.682 33 151.937 33H153.767C154.022 33 154.267 32.8957 154.447 32.71C154.628 32.5244 154.729 32.2726 154.729 32.01V26.2252C154.729 25.9626 154.628 25.7108 154.447 25.5251C154.267 25.3395 154.022 25.2352 153.767 25.2352H151.456C151.328 25.2352 151.206 25.2873 151.116 25.3802C151.025 25.473 150.975 25.5989 150.975 25.7302Z" fill="#DCDCDC"/>
</svg>
