<svg width="190" height="290" viewBox="0 0 190 290" fill="none" xmlns="http://www.w3.org/2000/svg">
<mask id="path-1-inside-1_60_566" fill="white">
<path d="M0.922914 20.9263C-0.115899 17.7945 1.59059 14.4293 4.76068 13.4686C63.7477 -4.40676 126.795 -4.36878 185.676 13.5762C188.886 14.5543 190.619 17.9751 189.556 21.1192L100.137 285.639C98.2982 291.08 90.5115 291.016 88.697 285.546L0.922914 20.9263Z"/>
</mask>
<path d="M0.922914 20.9263C-0.115899 17.7945 1.59059 14.4293 4.76068 13.4686C63.7477 -4.40676 126.795 -4.36878 185.676 13.5762C188.886 14.5543 190.619 17.9751 189.556 21.1192L100.137 285.639C98.2982 291.08 90.5115 291.016 88.697 285.546L0.922914 20.9263Z" stroke="#FF5AF8" stroke-width="26" mask="url(#path-1-inside-1_60_566)"/>
</svg>
