<svg width="606" height="606" viewBox="0 0 606 606" fill="none" xmlns="http://www.w3.org/2000/svg">
<g clip-path="url(#clip0_9_123)">
<mask id="path-1-inside-1_9_123" fill="white">
<path d="M58.2454 125.441C95.7893 73.8071 148.738 35.3907 209.502 15.6979L303.078 303.323L58.2454 125.441Z"/>
</mask>
<g filter="url(#filter0_i_9_123)">
<path d="M58.2454 125.441C95.7893 73.8071 148.738 35.3907 209.502 15.6979L303.078 303.323L58.2454 125.441Z" fill="#9C8CFC"/>
</g>
<path d="M58.2454 125.441C95.7893 73.8071 148.738 35.3907 209.502 15.6979L303.078 303.323L58.2454 125.441Z" stroke="#4E2697" mask="url(#path-1-inside-1_9_123)"/>
<mask id="path-2-inside-2_9_123" fill="white">
<path d="M58.2454 481.204C20.7402 429.542 0.565982 367.314 0.614223 303.438L303.078 303.323L58.2454 481.204Z"/>
</mask>
<g filter="url(#filter1_i_9_123)">
<path d="M58.2454 481.204C20.7402 429.542 0.565982 367.314 0.614223 303.438L303.078 303.323L58.2454 481.204Z" fill="#9C8CFC"/>
</g>
<path d="M58.2454 481.204C20.7402 429.542 0.565982 367.314 0.614223 303.438L303.078 303.323L58.2454 481.204Z" stroke="#4E2697" mask="url(#path-2-inside-2_9_123)"/>
<mask id="path-3-inside-3_9_123" fill="white">
<path d="M396.596 591.141C335.873 610.846 270.456 610.803 209.722 591.018L303.078 303.322L396.596 591.141Z"/>
</mask>
<g filter="url(#filter2_i_9_123)">
<path d="M396.596 591.141C335.873 610.846 270.456 610.803 209.722 591.018L303.078 303.322L396.596 591.141Z" fill="#9C8CFC"/>
</g>
<path d="M396.596 591.141C335.873 610.846 270.456 610.803 209.722 591.018L303.078 303.322L396.596 591.141Z" stroke="#4E2697" mask="url(#path-3-inside-3_9_123)"/>
<mask id="path-4-inside-4_9_123" fill="white">
<path d="M605.708 303.323C605.684 367.163 585.429 429.365 547.844 481.013L303.078 303.323L605.708 303.323Z"/>
</mask>
<g filter="url(#filter3_i_9_123)">
<path d="M605.708 303.323C605.684 367.163 585.429 429.365 547.844 481.013L303.078 303.323L605.708 303.323Z" fill="#9C8CFC"/>
</g>
<path d="M605.708 303.323C605.684 367.163 585.429 429.365 547.844 481.013L303.078 303.323L605.708 303.323Z" stroke="#4E2697" mask="url(#path-4-inside-4_9_123)"/>
<mask id="path-5-inside-5_9_123" fill="white">
<path d="M396.596 15.5042C457.304 35.2547 510.202 73.7403 547.708 125.445L303.078 303.322L396.596 15.5042Z"/>
</mask>
<g filter="url(#filter4_i_9_123)">
<path d="M396.596 15.5042C457.304 35.2547 510.202 73.7403 547.708 125.445L303.078 303.322L396.596 15.5042Z" fill="#9C8CFC"/>
</g>
<path d="M396.596 15.5042C457.304 35.2547 510.202 73.7403 547.708 125.445L303.078 303.322L396.596 15.5042Z" stroke="#4E2697" mask="url(#path-5-inside-5_9_123)"/>
<mask id="path-6-inside-6_9_123" fill="white">
<path d="M0.446748 303.321C0.4706 239.48 20.7262 177.279 58.3103 125.631L303.077 303.321H0.446748Z"/>
</mask>
<g filter="url(#filter5_i_9_123)">
<path d="M0.446748 303.321C0.4706 239.48 20.7262 177.279 58.3103 125.631L303.077 303.321H0.446748Z" fill="white"/>
</g>
<path d="M0.446748 303.321C0.4706 239.48 20.7262 177.279 58.3103 125.631L303.077 303.321H0.446748Z" stroke="#4E2697" stroke-opacity="0.56" mask="url(#path-6-inside-6_9_123)"/>
<mask id="path-7-inside-7_9_123" fill="white">
<path d="M209.559 591.139C148.85 571.389 95.9523 532.903 58.4462 481.199L303.077 303.321L209.559 591.139Z"/>
</mask>
<g filter="url(#filter6_i_9_123)">
<path d="M209.559 591.139C148.85 571.389 95.9523 532.903 58.4462 481.199L303.077 303.321L209.559 591.139Z" fill="white"/>
</g>
<path d="M209.559 591.139C148.85 571.389 95.9523 532.903 58.4462 481.199L303.077 303.321L209.559 591.139Z" stroke="#4E2697" stroke-opacity="0.56" mask="url(#path-7-inside-7_9_123)"/>
<mask id="path-8-inside-8_9_123" fill="white">
<path d="M547.909 481.202C510.366 532.837 457.417 571.253 396.653 590.946L303.077 303.321L547.909 481.202Z"/>
</mask>
<g filter="url(#filter7_i_9_123)">
<path d="M547.909 481.202C510.366 532.837 457.417 571.253 396.653 590.946L303.077 303.321L547.909 481.202Z" fill="white"/>
</g>
<path d="M547.909 481.202C510.366 532.837 457.417 571.253 396.653 590.946L303.077 303.321L547.909 481.202Z" stroke="#4E2697" stroke-opacity="0.56" mask="url(#path-8-inside-8_9_123)"/>
<mask id="path-9-inside-9_9_123" fill="white">
<path d="M547.91 125.44C585.415 177.102 605.589 239.33 605.541 303.206L303.077 303.321L547.91 125.44Z"/>
</mask>
<g filter="url(#filter8_i_9_123)">
<path d="M547.91 125.44C585.415 177.102 605.589 239.33 605.541 303.206L303.077 303.321L547.91 125.44Z" fill="white"/>
</g>
<path d="M547.91 125.44C585.415 177.102 605.589 239.33 605.541 303.206L303.077 303.321L547.91 125.44Z" stroke="#4E2697" stroke-opacity="0.56" mask="url(#path-9-inside-9_9_123)"/>
<mask id="path-10-inside-10_9_123" fill="white">
<path d="M209.559 15.5033C270.283 -4.20183 335.699 -4.15907 396.434 15.6255L303.077 303.322L209.559 15.5033Z"/>
</mask>
<g filter="url(#filter9_i_9_123)">
<path d="M209.559 15.5033C270.283 -4.20183 335.699 -4.15907 396.434 15.6255L303.077 303.322L209.559 15.5033Z" fill="white"/>
</g>
<path d="M209.559 15.5033C270.283 -4.20183 335.699 -4.15907 396.434 15.6255L303.077 303.322L209.559 15.5033Z" stroke="#4E2697" stroke-opacity="0.56" mask="url(#path-10-inside-10_9_123)"/>
<path d="M406.809 304.844C406.809 355.616 364.375 396.801 311.999 396.801C259.622 396.801 217.189 355.616 217.189 304.844C217.189 254.072 259.622 212.887 311.999 212.887C364.375 212.887 406.809 254.072 406.809 304.844Z" stroke="#9F0199" stroke-opacity="0.05"/>
<path d="M447.727 301.893C447.727 372.208 387.211 429.26 312.498 429.26C237.784 429.26 177.269 372.208 177.269 301.893C177.269 231.578 237.784 174.527 312.498 174.527C387.211 174.527 447.727 231.578 447.727 301.893Z" stroke="#9F0199" stroke-opacity="0.05"/>
<path d="M522.578 297.959C522.578 409.566 428.096 500.078 311.5 500.078C194.904 500.078 100.422 409.566 100.422 297.959C100.422 186.352 194.904 95.8398 311.5 95.8398C428.096 95.8398 522.578 186.352 522.578 297.959Z" stroke="#9F0199" stroke-opacity="0.05"/>
<path d="M561.5 303.86C561.5 439.38 449.58 549.257 311.5 549.257C173.42 549.257 61.4998 439.38 61.4998 303.86C61.4998 168.34 173.42 58.4634 311.5 58.4634C449.58 58.4634 561.5 168.34 561.5 303.86Z" stroke="#9F0199" stroke-opacity="0.05"/>
</g>
<defs>
<filter id="filter0_i_9_123" x="58.2454" y="15.6978" width="244.833" height="291.625" filterUnits="userSpaceOnUse" color-interpolation-filters="sRGB">
<feFlood flood-opacity="0" result="BackgroundImageFix"/>
<feBlend mode="normal" in="SourceGraphic" in2="BackgroundImageFix" result="shape"/>
<feColorMatrix in="SourceAlpha" type="matrix" values="0 0 0 0 0 0 0 0 0 0 0 0 0 0 0 0 0 0 127 0" result="hardAlpha"/>
<feOffset dy="4"/>
<feGaussianBlur stdDeviation="11.5"/>
<feComposite in2="hardAlpha" operator="arithmetic" k2="-1" k3="1"/>
<feColorMatrix type="matrix" values="0 0 0 0 0.898039 0 0 0 0 0 0 0 0 0 0.862745 0 0 0 1 0"/>
<feBlend mode="normal" in2="shape" result="effect1_innerShadow_9_123"/>
</filter>
<filter id="filter1_i_9_123" x="0.614258" y="303.323" width="302.464" height="181.881" filterUnits="userSpaceOnUse" color-interpolation-filters="sRGB">
<feFlood flood-opacity="0" result="BackgroundImageFix"/>
<feBlend mode="normal" in="SourceGraphic" in2="BackgroundImageFix" result="shape"/>
<feColorMatrix in="SourceAlpha" type="matrix" values="0 0 0 0 0 0 0 0 0 0 0 0 0 0 0 0 0 0 127 0" result="hardAlpha"/>
<feOffset dy="4"/>
<feGaussianBlur stdDeviation="11.5"/>
<feComposite in2="hardAlpha" operator="arithmetic" k2="-1" k3="1"/>
<feColorMatrix type="matrix" values="0 0 0 0 0.898039 0 0 0 0 0 0 0 0 0 0.862745 0 0 0 1 0"/>
<feBlend mode="normal" in2="shape" result="effect1_innerShadow_9_123"/>
</filter>
<filter id="filter2_i_9_123" x="209.721" y="303.322" width="186.875" height="306.566" filterUnits="userSpaceOnUse" color-interpolation-filters="sRGB">
<feFlood flood-opacity="0" result="BackgroundImageFix"/>
<feBlend mode="normal" in="SourceGraphic" in2="BackgroundImageFix" result="shape"/>
<feColorMatrix in="SourceAlpha" type="matrix" values="0 0 0 0 0 0 0 0 0 0 0 0 0 0 0 0 0 0 127 0" result="hardAlpha"/>
<feOffset dy="4"/>
<feGaussianBlur stdDeviation="11.5"/>
<feComposite in2="hardAlpha" operator="arithmetic" k2="-1" k3="1"/>
<feColorMatrix type="matrix" values="0 0 0 0 0.898039 0 0 0 0 0 0 0 0 0 0.862745 0 0 0 1 0"/>
<feBlend mode="normal" in2="shape" result="effect1_innerShadow_9_123"/>
</filter>
<filter id="filter3_i_9_123" x="303.078" y="303.323" width="302.63" height="181.69" filterUnits="userSpaceOnUse" color-interpolation-filters="sRGB">
<feFlood flood-opacity="0" result="BackgroundImageFix"/>
<feBlend mode="normal" in="SourceGraphic" in2="BackgroundImageFix" result="shape"/>
<feColorMatrix in="SourceAlpha" type="matrix" values="0 0 0 0 0 0 0 0 0 0 0 0 0 0 0 0 0 0 127 0" result="hardAlpha"/>
<feOffset dy="4"/>
<feGaussianBlur stdDeviation="11.5"/>
<feComposite in2="hardAlpha" operator="arithmetic" k2="-1" k3="1"/>
<feColorMatrix type="matrix" values="0 0 0 0 0.898039 0 0 0 0 0 0 0 0 0 0.862745 0 0 0 1 0"/>
<feBlend mode="normal" in2="shape" result="effect1_innerShadow_9_123"/>
</filter>
<filter id="filter4_i_9_123" x="303.078" y="15.5044" width="244.631" height="291.818" filterUnits="userSpaceOnUse" color-interpolation-filters="sRGB">
<feFlood flood-opacity="0" result="BackgroundImageFix"/>
<feBlend mode="normal" in="SourceGraphic" in2="BackgroundImageFix" result="shape"/>
<feColorMatrix in="SourceAlpha" type="matrix" values="0 0 0 0 0 0 0 0 0 0 0 0 0 0 0 0 0 0 127 0" result="hardAlpha"/>
<feOffset dy="4"/>
<feGaussianBlur stdDeviation="11.5"/>
<feComposite in2="hardAlpha" operator="arithmetic" k2="-1" k3="1"/>
<feColorMatrix type="matrix" values="0 0 0 0 0.898039 0 0 0 0 0 0 0 0 0 0.862745 0 0 0 1 0"/>
<feBlend mode="normal" in2="shape" result="effect1_innerShadow_9_123"/>
</filter>
<filter id="filter5_i_9_123" x="0.446777" y="125.63" width="302.63" height="181.69" filterUnits="userSpaceOnUse" color-interpolation-filters="sRGB">
<feFlood flood-opacity="0" result="BackgroundImageFix"/>
<feBlend mode="normal" in="SourceGraphic" in2="BackgroundImageFix" result="shape"/>
<feColorMatrix in="SourceAlpha" type="matrix" values="0 0 0 0 0 0 0 0 0 0 0 0 0 0 0 0 0 0 127 0" result="hardAlpha"/>
<feOffset dy="4"/>
<feGaussianBlur stdDeviation="15"/>
<feComposite in2="hardAlpha" operator="arithmetic" k2="-1" k3="1"/>
<feColorMatrix type="matrix" values="0 0 0 0 1 0 0 0 0 0.4625 0 0 0 0 0.9785 0 0 0 0.32 0"/>
<feBlend mode="normal" in2="shape" result="effect1_innerShadow_9_123"/>
</filter>
<filter id="filter6_i_9_123" x="58.446" y="303.321" width="244.631" height="291.818" filterUnits="userSpaceOnUse" color-interpolation-filters="sRGB">
<feFlood flood-opacity="0" result="BackgroundImageFix"/>
<feBlend mode="normal" in="SourceGraphic" in2="BackgroundImageFix" result="shape"/>
<feColorMatrix in="SourceAlpha" type="matrix" values="0 0 0 0 0 0 0 0 0 0 0 0 0 0 0 0 0 0 127 0" result="hardAlpha"/>
<feOffset dy="4"/>
<feGaussianBlur stdDeviation="15"/>
<feComposite in2="hardAlpha" operator="arithmetic" k2="-1" k3="1"/>
<feColorMatrix type="matrix" values="0 0 0 0 1 0 0 0 0 0.4625 0 0 0 0 0.9785 0 0 0 0.32 0"/>
<feBlend mode="normal" in2="shape" result="effect1_innerShadow_9_123"/>
</filter>
<filter id="filter7_i_9_123" x="303.077" y="303.321" width="244.833" height="291.625" filterUnits="userSpaceOnUse" color-interpolation-filters="sRGB">
<feFlood flood-opacity="0" result="BackgroundImageFix"/>
<feBlend mode="normal" in="SourceGraphic" in2="BackgroundImageFix" result="shape"/>
<feColorMatrix in="SourceAlpha" type="matrix" values="0 0 0 0 0 0 0 0 0 0 0 0 0 0 0 0 0 0 127 0" result="hardAlpha"/>
<feOffset dy="4"/>
<feGaussianBlur stdDeviation="15"/>
<feComposite in2="hardAlpha" operator="arithmetic" k2="-1" k3="1"/>
<feColorMatrix type="matrix" values="0 0 0 0 1 0 0 0 0 0.4625 0 0 0 0 0.9785 0 0 0 0.32 0"/>
<feBlend mode="normal" in2="shape" result="effect1_innerShadow_9_123"/>
</filter>
<filter id="filter8_i_9_123" x="303.077" y="125.44" width="302.464" height="181.881" filterUnits="userSpaceOnUse" color-interpolation-filters="sRGB">
<feFlood flood-opacity="0" result="BackgroundImageFix"/>
<feBlend mode="normal" in="SourceGraphic" in2="BackgroundImageFix" result="shape"/>
<feColorMatrix in="SourceAlpha" type="matrix" values="0 0 0 0 0 0 0 0 0 0 0 0 0 0 0 0 0 0 127 0" result="hardAlpha"/>
<feOffset dy="4"/>
<feGaussianBlur stdDeviation="15"/>
<feComposite in2="hardAlpha" operator="arithmetic" k2="-1" k3="1"/>
<feColorMatrix type="matrix" values="0 0 0 0 1 0 0 0 0 0.4625 0 0 0 0 0.9785 0 0 0 0.32 0"/>
<feBlend mode="normal" in2="shape" result="effect1_innerShadow_9_123"/>
</filter>
<filter id="filter9_i_9_123" x="209.559" y="0.755859" width="186.874" height="306.565" filterUnits="userSpaceOnUse" color-interpolation-filters="sRGB">
<feFlood flood-opacity="0" result="BackgroundImageFix"/>
<feBlend mode="normal" in="SourceGraphic" in2="BackgroundImageFix" result="shape"/>
<feColorMatrix in="SourceAlpha" type="matrix" values="0 0 0 0 0 0 0 0 0 0 0 0 0 0 0 0 0 0 127 0" result="hardAlpha"/>
<feOffset dy="4"/>
<feGaussianBlur stdDeviation="15"/>
<feComposite in2="hardAlpha" operator="arithmetic" k2="-1" k3="1"/>
<feColorMatrix type="matrix" values="0 0 0 0 1 0 0 0 0 0.4625 0 0 0 0 0.9785 0 0 0 0.32 0"/>
<feBlend mode="normal" in2="shape" result="effect1_innerShadow_9_123"/>
</filter>
<clipPath id="clip0_9_123">
<rect width="606" height="606" fill="white"/>
</clipPath>
</defs>
</svg>
